<svg version="1" xmlns="http://www.w3.org/2000/svg" width="933.333" height="933.333" viewBox="0 0 700.000000 700.000000"><path d="M329.8.5c-.1.1-4.8.6-10.2.9-5.5.4-10.2.8-10.5 1-.3.2-3.5.7-7 1-3.5.4-8.5 1.1-11 1.6s-5.7 1.2-7.1 1.4c-13.4 2.4-25.9 5.6-40.5 10.3-10 3.2-15.5 5.2-31 11.5-24 9.7-65.4 34.9-83.6 50.8-1 .8-4.2 3.5-7.3 6-5.4 4.4-30 28.9-36.4 36.2-32.1 36.9-57.8 84.5-71.8 133.3-1.9 6.6-3.7 13.1-3.9 14.5-.3 1.4-.7 3.6-1 5-3.3 14.8-6.1 33.2-7.3 47-.9 11.4-.8 50.6.1 60 3.7 36.1 11.4 67.8 23.9 99 5.2 12.9 16.8 36.8 21.3 43.9 1.4 2.3 2.5 4.3 2.5 4.5 0 2.2 24.1 35.9 34.4 48.1 5.3 6.3 33.1 34.4 37.8 38.2 17.9 14.6 39 29.9 50.8 36.6 27.9 16.1 58.8 29 87.2 36.6 13.5 3.6 34.4 7.8 43 8.7 3.5.3 6.6.8 6.9.9 2.9 1.8 53.5 2.6 70.9 1.2 10.5-.9 11.1-.9 29-3.8 60.9-9.9 124.2-40 171-81.4 7.6-6.7 30.3-29.6 36.1-36.5 30.4-35.7 53.8-77.9 67.8-122.5 5.8-18.6 11.1-42.2 12.6-56.5.4-3 .8-6.1 1.1-6.9 2.4-7.3 2.3-78.1-.1-82-.1-.4-.6-3.3-.9-6.6-.3-3.3-.8-6.9-1-8-.2-1.1-1.1-6.1-2.1-11-15.3-81.9-62.3-157.9-130.1-210.6C553.8 65.4 532.5 51 531 51c-.5 0-1-.5-1-1 0-.6-.5-1-1-1-.6 0-2.9-1.2-5.2-2.6-6.6-4.2-29-15.1-41.6-20.3C454 14.6 420.3 5.8 391 2.5c-3-.4-6.8-.8-8.5-1.1C379 .9 330.3 0 329.8.5zm49.8 26.8c1.7.2 5.7.7 9 1.1C521 44.2 631.7 141.7 664 271c7.3 29.4 9.6 48.6 9.4 80.5-.1 21.4-.6 29.2-2.9 45-6.1 41.3-20.3 81.7-41.3 117.5-5 8.4-20.2 30.8-23.7 34.9-1.2 1.4-5.1 6-8.5 10.1-11.1 13.5-28.7 30.8-42.2 41.6-4.5 3.6-9.2 7.4-10.3 8.3-1.1.9-4.1 2.9-6.5 4.6-2.5 1.6-4.7 3.3-5 3.6-1.7 2-22.9 14.5-36.5 21.4-22.8 11.7-43.8 19.6-67.3 25.5-6.5 1.6-13 3.1-14.7 3.4-1.6.3-5.3 1-8.2 1.5-2.9.6-7.4 1.3-10 1.6-2.6.4-5.9.8-7.3 1.1-10.4 1.8-48.4 2.5-65.5 1.2-17.5-1.3-46.2-6.4-58.6-10.4-2.5-.8-5.4-1.6-6.5-1.8-2.3-.5-17.1-5.3-19.9-6.5-1.1-.5-4.7-1.9-8-3.2-9.8-3.6-31.5-14.2-42.1-20.4-8.5-5-25.7-16.1-28.9-18.7-.5-.4-5.7-4.5-11.5-9-10.7-8.4-38-34.8-46.1-44.7C76.4 527 56.5 491.8 43.7 455c-3.8-10.6-9.5-31.6-11.2-41-1-5.5-3.4-20.8-4-25.5-.4-2.8-.8-6.4-1.1-8-1.2-7.9-1-48.1.2-61 8.7-87.6 51.9-167.7 119.9-222 2.7-2.2 5.6-4.6 6.4-5.3.7-.7 8.4-6 17-11.7 31.1-20.8 68.2-37 103.6-45.5 7.3-1.7 24.3-4.9 29.5-5.5 2.5-.3 5.4-.8 6.5-1 1.2-.2 6.1-.7 11-1.1 5-.3 9.2-.8 9.3-.9.5-.5 44.9.3 48.8.8z"/><path d="M322.5 56c-20.3 2.2-35.7 5.1-51.5 9.6-11 3.1-24.5 7.7-25.5 8.5-.5.5-1.4.9-2.1.9-4.1 0-38.7 17.4-52.4 26.4-9.3 6-25.6 17.9-27 19.6-.3.3-2.5 2.1-5 4-6.7 5.2-27.7 26.3-35.6 36-31.8 38.4-53.2 83.2-62.9 131.5-1.2 5.7-3.4 21-4.4 29.5-.8 8-.7 50.9.2 57.5.2 1.6.7 5.7 1.1 9 1.7 15.1 7.3 39 13.3 56.5 23.2 68 70.1 124.7 133.3 161.2 8.8 5.1 26.5 13.8 27.9 13.8.4 0 .7-1.5.7-3.3.1-5.8 1.6-36.1 2-39.7.1-1.9.5-11.8.8-22 .7-21-.5-29.4-5.4-38.9-3.5-6.9-7.7-11.2-20.2-20.8-10.1-7.7-12.8-11-15.7-19.1-1.6-4.3-1.7-9.6-1.5-59.2.3-63.8.9-83.8 2.9-103 .6-5.6 3.2-23.4 4-28 .3-1.4.8-4.1 1.1-6 .3-1.9.7-4.3 1-5.2.3-1 .8-3 1-4.5 6.5-36 30.9-107.1 45.2-131.6 4.8-8.3 14.5-19.2 19.7-22.3 5.2-3 8.4-2.7 10.1 1 .8 1.6 1.2 30.2 1.3 95.2.7 241.5 1 309.2 1.6 324.9.8 23.9 1.5 40.5 2 51.5.2 5.2.7 17.1 1.1 26.5.3 9.3.6 18.1.7 19.5.2 2.1.9 2.6 5.7 3.7 3 .7 7.1 1.5 9 1.8 6.4 1 9.5 1.5 12.5 2 8.2 1.4 19.9 2 38.5 2 17.3 0 34.7-1 35.8-2 .7-.6 1-5 1.6-19.5.4-8.5.9-17.8 1.1-20.5.2-2.8.7-10.9 1-18 .4-7.2.8-15.5 1-18.5.2-3 .6-11.8 1-19.5.3-7.7.8-16.7 1-20 .1-3.3.6-12.1 1-19.5.3-7.4.8-16.9 1-21 .2-4.1.7-13.2 1-20.1l.6-12.6-6.2-1.7c-15.2-4.2-33.6-16.3-44.5-29.3-6.7-8.1-9.2-13.1-10.2-21-1.3-10.8-.4-76.3 1.3-85.1.1-.9.6-6.4 1-12.2.4-5.8.8-11.2 1-12 .2-.8.6-6 1-11.5s.8-10.2 1-10.5c.2-.3.6-4.8 1-10s.8-9.7 1-10c.2-.3.6-4.3 1-9s.8-9.2 1-10c.2-.8.6-4.4.9-8 .4-3.6.9-7.6 1.1-9 .2-1.4.7-5 1-8 .4-3 .8-6.6 1-8 .2-1.4.7-5 1-8 .3-3 .8-7 1.1-8.8l.6-3.2 8.9.1c5.9.1 8.9.5 9 1.3 0 .6.2 45.2.2 99.1l.2 98 8.7.2c5.8.1 8.8-.3 9-1 .3-.7.4-45.4.4-99.5l-.1-98.3 10 .3 10 .3.1 98c.1 53.9.2 98.5.3 99.1.1.8 2.9 1.1 8.9 1l8.7-.1.2-98c.1-53.9.2-98.6.2-99.3.1-.9 2.8-1.2 10.1-1.2 8.8 0 10 .2 10.1 1.7.1 1 .3 45.2.4 98.3.1 53.1.3 97 .4 97.6.1 1 14.2 1.7 16.6.8.8-.4 1.1-27.3 1.1-97.2-.1-53.2.1-97.7.3-99 .3-2 .9-2.2 7.2-2.2h6.9l.1 3c.1 1.6.2 3.3.3 3.7.4 1.4 1.6 10.7 2.1 15.8.3 2.7 1 8.8 1.6 13.5.5 4.7 1.2 10.3 1.4 12.5.4 3.8 1.1 9.7 2 17.5.8 6.8 2.5 23.6 3 30.5.3 3.8.8 8.1 1 9.5.2 1.4.7 6.3 1 11 .3 4.7.7 10.5 1 13 1.9 20.1 2.5 33.4 2.9 60.5.3 21.8-.4 33.7-2.5 40.5-2.3 7.3-14.8 21.3-26.4 29.5-7 5-20.5 11.7-27.5 13.5-5.3 1.4-5.9 2.2-5.5 6.9.2 2 .6 10.1 1 18.1.3 8 .8 16.7 1 19.5.2 2.7.6 10.8 1 18 .3 7.1.7 16.4 1 20.5.3 4.1.7 12.7 1 19 .4 6.3.8 15.1 1 19.5.2 4.4.7 13.4 1 20 .3 6.6.8 14.5 1 17.5.3 3 .5 8.5.6 12.2.1 3.8.3 6.8.5 6.8 1.2 0 21.2-7.8 27.4-10.7 4.1-2 9.1-4.2 11-5 5.4-2.3 23.5-12.9 33.5-19.6 56.7-38 99-95.5 118.4-161 3.1-10.4 7.6-29.9 8.6-37.6.3-2 .7-5 .9-6.6 1.7-11.8 2.1-19.7 2.1-39.5 0-12.4-.4-25.7-.8-29.5-.4-3.9-1-8.6-1.2-10.7-.4-3.7-1.9-12.5-3.9-22.5-1.3-6.5-6.9-26.1-10-35-14.5-41.4-39.4-80.6-71.5-112.3-43-42.3-94.4-69.1-154.6-80.5-1.6-.3-6.4-1-10.5-1.5-4.1-.6-8.8-1.3-10.5-1.6-5-.9-51.5-1.2-59-.4z"/></svg>